<?xml version="1.0" encoding="UTF-8" standalone="no"?>
<!DOCTYPE svg PUBLIC "-//W3C//DTD SVG 1.1//EN" "http://www.w3.org/Graphics/SVG/1.1/DTD/svg11.dtd">
<!-- Created with Vectornator (http://vectornator.io/) -->
<svg height="100%" stroke-miterlimit="10" style="fill-rule:nonzero;clip-rule:evenodd;stroke-linecap:round;stroke-linejoin:round;" version="1.1" viewBox="854.402 596.774 220.149 196.685" width="100%" xml:space="preserve" xmlns="http://www.w3.org/2000/svg" xmlns:xlink="http://www.w3.org/1999/xlink">
<defs>
<filter color-interpolation-filters="sRGB" filterUnits="userSpaceOnUse" height="193.614" id="Filter" width="219.55" x="854.405" y="596.774">
<feDropShadow dx="-3.89452" dy="6.7281" flood-color="#000000" flood-opacity="0.333" in="SourceGraphic" result="Shadow" stdDeviation="8.25342"/>
</filter>
<radialGradient cx="0" cy="0" gradientTransform="matrix(-14.2735 88.9241 -88.621 -14.2258 948.485 647.191)" gradientUnits="userSpaceOnUse" id="RadialGradient" r="1">
<stop offset="0.31875" stop-color="#fe99b0"/>
<stop offset="0.704167" stop-color="#fff3d5"/>
<stop offset="0.997917" stop-color="#fbf7e5"/>
</radialGradient>
<filter color-interpolation-filters="sRGB" filterUnits="userSpaceOnUse" height="119.954" id="Filter_2" width="95.3942" x="887.731" y="650.598">
<feDropShadow dx="-3.89452" dy="6.7281" flood-color="#000000" flood-opacity="0.333" in="SourceGraphic" result="Shadow" stdDeviation="8.25342"/>
</filter>
<radialGradient cx="0" cy="0" gradientTransform="matrix(2.18712 84.2042 -83.9173 2.23227 998.839 673.595)" gradientUnits="userSpaceOnUse" id="RadialGradient_2" r="1">
<stop offset="0.3125" stop-color="#fff3d5"/>
<stop offset="0.99375" stop-color="#fe99b0"/>
<stop offset="0.997917" stop-color="#fbf7e5"/>
</radialGradient>
<filter color-interpolation-filters="sRGB" filterUnits="userSpaceOnUse" height="177.745" id="Filter_3" width="126.094" x="948.458" y="600.865">
<feDropShadow dx="-3.89452" dy="6.7281" flood-color="#000000" flood-opacity="0.333" in="SourceGraphic" result="Shadow" stdDeviation="8.25342"/>
</filter>
<linearGradient gradientTransform="matrix(13.4694 -49.7351 49.5656 13.4427 986.448 715.194)" gradientUnits="userSpaceOnUse" id="LinearGradient" x1="0" x2="1" y1="0" y2="0">
<stop offset="0" stop-color="#ffa270"/>
<stop offset="1" stop-color="#ff7871"/>
</linearGradient>
<filter color-interpolation-filters="sRGB" filterUnits="userSpaceOnUse" height="196.029" id="Filter_4" width="184.821" x="854.402" y="597.43">
<feDropShadow dx="-3.89452" dy="6.7281" flood-color="#000000" flood-opacity="0.333" in="SourceGraphic" result="Shadow" stdDeviation="8.25342"/>
</filter>
</defs>
<g id="Calque-4-copier-copier-copier-copier">
<path d="M923.027 610.766C909.075 611.709 878.764 621.386 878.934 663.12C879.036 688.04 903.99 718.292 926.226 737.602C929.894 740.788 933.425 743.545 936.838 746.103C940.224 748.641 943.332 750.758 946.254 752.686C946.933 753.134 947.589 753.556 948.24 753.973C950.072 755.147 951.683 756.122 953.257 757.054C955.932 758.635 958.655 760.231 960.387 761.127C960.831 761.352 961.526 761.701 961.817 761.845C963.122 762.492 964.176 763.004 964.229 763.027C964.282 763.009 965.39 762.599 966.384 762.208C966.818 762.035 967.964 761.499 968.836 761.136C970.762 760.314 972.921 759.397 975.874 757.94C975.908 757.923 975.946 757.894 975.981 757.877C976.043 757.846 976.131 757.803 976.194 757.772C980.764 755.504 986.431 752.375 992.635 748.455C996.295 746.141 1000.11 743.612 1004.08 740.671C1027.74 723.174 1054.93 695 1056.95 670.164C1060.81 622.629 1021.77 613.685 1012.19 614.162C1002.62 614.639 979.723 621.946 974.092 640.06C968.461 658.173 981.308 665.476 981.308 665.476C981.308 665.476 984.846 667.92 989.289 667.295C993.732 666.671 995.52 661.296 995.52 661.296L989.006 661.249C989.006 661.249 992.9 650.87 1001.97 651.886C1011.04 652.902 1019.63 667.262 1019.63 667.262C1019.63 667.262 1028.8 680.123 1021.05 703.059C1023.16 694.97 1021.5 688.601 1019.77 681.526C1017.6 672.616 1013.06 666.56 1013.06 666.56C1013.06 666.56 1008.61 671.216 1004.7 676.939C1000.8 682.662 997.015 690.963 997.015 690.963C997.015 690.963 993.291 683.504 988.212 678.334C983.133 673.165 976.704 670.275 976.704 670.275C976.704 670.275 976.15 691.81 967.271 711.054C966.918 711.819 966.508 712.487 966.143 713.223C965.835 712.46 965.494 711.779 965.202 710.989C957.83 691.103 958.951 669.583 958.951 669.583C958.951 669.583 952.301 671.961 946.84 676.713C941.378 681.466 937.101 688.607 937.101 688.607C937.101 688.607 933.965 680.014 930.515 674C927.064 667.987 922.993 663.016 922.993 663.016C922.993 663.016 917.99 668.687 915.135 677.398C912.868 684.314 912.109 690.385 912.19 698.738C906.223 675.255 916.358 663.178 916.358 663.178C916.358 663.178 926.043 649.525 935.163 649.228C944.282 648.931 947.356 659.606 947.356 659.606L941.659 659.179C941.659 659.179 942.233 664.615 946.615 665.589C950.997 666.563 954.7 664.417 954.7 664.417C954.7 664.417 968.092 658.152 963.871 639.65C959.651 621.147 937.397 612.044 927.891 610.813C926.703 610.66 925.02 610.632 923.027 610.766Z" fill="#fbcfd9" fill-rule="nonzero" filter="url(#Filter)" stroke="none"/>
<path d="M923.132 664.504C923.132 664.504 918.107 670.278 915.233 679.132C912.952 686.162 912.19 692.335 912.264 700.822C912.512 701.815 912.731 702.791 913.038 703.824C920.702 729.676 945.391 743.191 945.391 743.191C945.391 743.191 957.515 733.561 966.386 715.482C966.078 714.707 965.731 714.011 965.438 713.208C958.062 693.009 959.198 671.155 959.198 671.155C959.198 671.155 952.534 673.571 947.05 678.406C941.565 683.24 937.255 690.491 937.255 690.491C937.255 690.491 934.123 681.779 930.668 675.673C927.212 669.566 923.132 664.504 923.132 664.504Z" fill="url(#RadialGradient)" fill-rule="nonzero" filter="url(#Filter_2)" stroke="none"/>
<path d="M1012.67 614.789C1003.07 615.283 980.095 622.729 974.427 641.139C968.758 659.55 981.646 666.952 981.646 666.952C981.646 666.952 985.181 669.424 989.64 668.785C994.098 668.146 995.106 662.687 995.106 662.687L989.371 662.64C989.371 662.64 993.29 652.091 1002.39 653.114C1011.49 654.137 1020.1 668.722 1020.1 668.722C1020.1 668.722 1029.29 681.775 1021.49 705.088C1021.3 707.28 1018.98 714.185 1018.09 716.617C1014.12 727.425 1010.95 731.71 1010.95 731.71C1010.95 731.71 1004.7 743.028 992.926 751.248C996.601 748.894 1000.42 746.327 1004.41 743.333C1028.16 725.531 1055.49 696.866 1057.54 671.629C1061.46 623.324 1022.28 614.295 1012.67 614.789Z" fill="url(#RadialGradient_2)" fill-rule="nonzero" filter="url(#Filter_3)" stroke="none"/>
<path d="M923.227 611.424C909.228 612.396 878.802 622.257 878.931 664.662C879.008 689.982 904.017 720.685 926.308 740.284C929.985 743.518 933.517 746.314 936.939 748.91C947.253 756.734 955.844 761.689 960.556 764.154C961.001 764.382 961.686 764.751 961.978 764.897C963.286 765.553 964.357 766.074 964.411 766.098C964.464 766.079 965.562 765.643 966.56 765.244C966.995 765.069 968.149 764.54 969.024 764.17C970.957 763.334 973.137 762.384 976.101 760.9C976.136 760.883 976.177 760.87 976.212 760.853C976.275 760.821 976.354 760.774 976.417 760.742C981.005 758.434 986.698 755.237 992.926 751.248C1004.7 743.028 1010.74 731.796 1010.74 731.796C1010.74 731.796 1015.1 723.751 1017.17 718.883C1019.24 714.014 1019.21 713.905 1021.49 705.088C1023.61 696.867 1021.93 690.412 1020.21 683.224C1018.03 674.173 1013.49 668.011 1013.49 668.011C1013.49 668.011 1009.03 672.761 1005.11 678.579C1001.18 684.398 997.38 692.829 997.38 692.829C997.38 692.829 993.641 685.264 988.55 680.017C983.459 674.77 977.017 671.834 977.017 671.834C977.017 671.834 976.435 693.724 967.507 713.287C967.152 714.064 966.753 714.734 966.386 715.482C957.515 733.561 945.391 743.191 945.391 743.191C945.391 743.191 920.702 729.676 913.038 703.824C912.731 702.791 912.512 701.815 912.264 700.822C906.3 676.968 916.481 664.678 916.481 664.678C916.481 664.678 926.209 650.802 935.359 650.491C944.51 650.181 947.587 661.013 947.587 661.013L941.868 660.602C941.868 660.602 942.433 666.126 946.828 667.11C951.224 668.095 954.948 665.91 954.948 665.91C954.948 665.91 968.39 659.525 964.174 640.729C959.958 621.932 937.629 612.713 928.093 611.472C926.901 611.317 925.227 611.286 923.227 611.424Z" fill="url(#LinearGradient)" fill-rule="nonzero" filter="url(#Filter_4)" stroke="none"/>
</g>
</svg>
